<svg width="179" height="31" viewBox="0 0 179 31" fill="none" xmlns="http://www.w3.org/2000/svg">
<g clip-path="url(#clip0_3705_4983)">
<path d="M54.6601 6.49552C56.6601 7.59552 58.2601 9.19552 59.3601 11.1955C60.4601 13.1955 61.0601 15.5955 61.0601 17.8955C61.1601 20.6955 60.1601 23.4955 58.4601 25.6955L62.0601 30.4955H56.1601L54.9601 28.8955C52.7601 30.1955 50.3601 30.8955 47.7601 30.8955C45.3601 30.8955 42.9601 30.3955 40.8601 29.1955C38.8601 28.0955 37.2601 26.4955 36.1601 24.4955C33.8601 20.2955 33.8601 15.2955 36.1601 11.0955C37.2601 9.09553 38.8601 7.49552 40.8601 6.39552C45.2601 4.19552 50.3601 4.19552 54.6601 6.49552ZM43.6601 10.6955C42.4601 11.3955 41.4601 12.3955 40.7601 13.5955C39.3601 16.2955 39.3601 19.4955 40.7601 22.1955C41.4601 23.3955 42.3601 24.3955 43.6601 25.0955C44.9601 25.7955 46.3601 26.1955 47.7601 26.0955C49.2601 26.0955 50.7601 25.6955 52.0601 24.9955L47.4601 18.8955H53.4601L55.1601 21.1955C55.5601 20.0955 55.7601 18.9955 55.7601 17.7955C55.7601 16.2955 55.4601 14.7955 54.7601 13.4955C54.0601 12.2955 53.1601 11.2955 51.8601 10.5955C49.3601 9.29553 46.2601 9.29552 43.6601 10.6955Z" fill="white"/>
<path d="M75.96 30.4954V28.5954C74.66 30.1954 72.76 31.0954 70.76 30.9954C69.26 30.9954 67.76 30.5954 66.46 29.7954C65.16 28.9954 64.16 27.7954 63.46 26.4954C61.96 23.4954 61.96 20.0954 63.46 17.0954C64.16 15.6954 65.16 14.5954 66.46 13.7954C67.76 12.9954 69.26 12.5954 70.76 12.5954C72.76 12.4954 74.76 13.3954 75.96 14.9954V13.0954H80.56V30.5954L75.96 30.4954ZM68.26 18.2954C67.46 19.1954 66.96 20.4954 67.06 21.6954C67.06 22.9954 67.46 24.1954 68.26 25.0954C69.96 26.8954 72.86 26.9954 74.66 25.1954L74.76 25.0954C75.56 24.0954 76.06 22.8954 75.96 21.5954C75.96 20.2954 75.56 19.0954 74.76 18.1954C73.06 16.4954 70.16 16.4954 68.26 18.2954Z" fill="white"/>
<path d="M94.46 12.9958L93.76 17.5958C93.36 17.3958 92.86 17.2958 92.36 17.1958C91.86 17.0958 91.36 17.0958 90.86 17.0958C89.86 17.0958 88.86 17.3958 88.16 18.0958C87.46 18.8958 87.06 19.9958 87.16 20.9958V30.4958H82.46V12.9958H86.96V14.8958C88.06 13.2958 89.96 12.3958 91.86 12.4958C92.86 12.4958 93.66 12.6958 94.46 12.9958Z" fill="white"/>
<path d="M103.56 17.1949V23.5949C103.46 24.3949 103.76 25.1949 104.26 25.8949C104.76 26.3949 105.46 26.6949 106.16 26.5949C107.36 26.4949 108.46 26.0949 109.46 25.3949L111.16 29.0949C110.36 29.6949 109.46 30.0949 108.46 30.4949C107.46 30.7949 106.46 30.9949 105.36 30.9949C103.56 31.0949 101.76 30.4949 100.46 29.1949C99.2599 27.6949 98.6599 25.8949 98.7599 23.9949V17.1949H95.3599V12.9949H98.7599V7.79492H103.46V12.9949H109.76V17.1949H103.56Z" fill="white"/>
<path d="M133.56 30.4949L120.76 13.5949V30.4949H115.76V5.29492H120.46L133.26 22.1949V5.29492H138.36V30.5949H133.56V30.4949Z" fill="white"/>
<path d="M139.76 30.4949V5.29492H144.76V25.7949H158.16V30.4949H139.76Z" fill="white"/>
<path d="M164.06 30.4949H159.06V5.29492H169.36C172.36 5.29492 174.56 5.99492 176.16 7.39492C179.36 10.6949 179.36 15.8949 176.16 19.0949C174.56 20.4949 172.26 21.1949 169.36 21.1949H164.06V30.4949ZM164.06 16.6949H169.26C172.06 16.6949 173.46 15.5949 173.46 13.2949C173.46 10.9949 172.06 9.89492 169.26 9.89492H164.06V16.6949Z" fill="white"/>
<path d="M0 2.5V28.6C0 29.9 1.1 31 2.5 31H28.6C30 31 31.1 29.9 31.1 28.5V2.5C31 1.1 29.9 0 28.5 0H2.5C1.1 0 0 1.1 0 2.5ZM27.8 30.3H27C26.4 30.3 26 29.8 26 29.3V26V7.5C26 6.1 24.9 5 23.6 5H7.4C6.1 5 5 6.1 5 7.5V23.5C5 24.9 6.1 26 7.4 26C10.5 26 15.4 26 15.5 26C16.5 26 17.5 25.5 18.3 24.8C19.2 23.9 19.6 22.7 19.5 21.5C19.5 20.4 19.2 19.4 18.7 18.5C18 17.4 17.1 16.4 16.2 15.5C15.4 14.6 14.7 13.9 14.2 13.2C13.7 12.5 13.2 11.8 12.9 11C12.5 10.1 12.4 9.1 12.4 8.1V7.2C12.4 6.9 12.7 6.6 13 6.6H16.4C16.7 6.6 17 6.9 17 7.2V7.7C17 8.4 17.1 9 17.4 9.6C17.7 10.2 18 10.7 18.4 11.1C18.8 11.5 19.3 12.1 20 12.8C20.8 13.5 21.5 14.3 22.2 15.1C22.8 15.9 23.3 16.7 23.7 17.7C24.1 18.9 24.3 20.1 24.3 21.4C24.3 23 24 24.6 23.2 26C23.2 26.1 23.1 26.1 23.1 26.2C22.3 27.5 21.2 28.6 19.8 29.3C18.4 30 16.8 30.4 15.2 30.4H3.2C1.8 30.4 0.7 29.3 0.7 27.9V3.2C0.7 1.8 1.8 0.7 3.2 0.7H27.9C29.3 0.7 30.4 1.8 30.4 3.2V27.9C30.3 29.2 29.2 30.3 27.8 30.3Z" fill="white"/>
</g>
<defs>
<clipPath id="clip0_3705_4983">
<rect width="178.6" height="31" fill="white"/>
</clipPath>
</defs>
</svg>
