<svg width="196" height="47" viewBox="0 0 196 47" fill="none" xmlns="http://www.w3.org/2000/svg">
<path d="M8 10.5V36.6C8 37.9 9.1 39 10.5 39H36.6C38 39 39.1 37.9 39.1 36.5V10.5C39 9.1 37.9 8 36.5 8H10.5C9.1 8 8 9.1 8 10.5ZM35.8 38.3H35C34.4 38.3 34 37.8 34 37.3V34V15.5C34 14.1 32.9 13 31.6 13H15.4C14.1 13 13 14.1 13 15.5V31.5C13 32.9 14.1 34 15.4 34C18.5 34 23.4 34 23.5 34C24.5 34 25.5 33.5 26.3 32.8C27.2 31.9 27.6 30.7 27.5 29.5C27.5 28.4 27.2 27.4 26.7 26.5C26 25.4 25.1 24.4 24.2 23.5C23.4 22.6 22.7 21.9 22.2 21.2C21.7 20.5 21.2 19.8 20.9 19C20.5 18.1 20.4 17.1 20.4 16.1V15.2C20.4 14.9 20.7 14.6 21 14.6H24.4C24.7 14.6 25 14.9 25 15.2V15.7C25 16.4 25.1 17 25.4 17.6C25.7 18.2 26 18.7 26.4 19.1C26.8 19.5 27.3 20.1 28 20.8C28.8 21.5 29.5 22.3 30.2 23.1C30.8 23.9 31.3 24.7 31.7 25.7C32.1 26.9 32.3 28.1 32.3 29.4C32.3 31 32 32.6 31.2 34C31.2 34.1 31.1 34.1 31.1 34.2C30.3 35.5 29.2 36.6 27.8 37.3C26.4 38 24.8 38.4 23.2 38.4H11.2C9.8 38.4 8.7 37.3 8.7 35.9V11.2C8.7 9.8 9.8 8.7 11.2 8.7H35.9C37.3 8.7 38.4 9.8 38.4 11.2V35.9C38.3 37.2 37.2 38.3 35.8 38.3Z" fill="#F2F6FC"/>
<path d="M63.3251 14.4894C65.3251 15.5894 66.9251 17.1894 68.0251 19.1894C69.1251 21.1894 69.7251 23.5894 69.7251 25.8894C69.8251 28.6894 68.8251 31.4894 67.1251 33.6894L70.7251 38.4894H64.8251L63.6251 36.8894C61.4251 38.1894 59.0251 38.8894 56.4251 38.8894C54.0251 38.8894 51.6251 38.3894 49.5251 37.1894C47.5251 36.0894 45.9251 34.4894 44.8251 32.4894C42.5251 28.2894 42.5251 23.2894 44.8251 19.0894C45.9251 17.0894 47.5251 15.4894 49.5251 14.3894C53.9251 12.1894 59.0251 12.1894 63.3251 14.4894ZM52.3251 18.6894C51.1251 19.3894 50.1251 20.3894 49.4251 21.5894C48.0251 24.2894 48.0251 27.4894 49.4251 30.1894C50.1251 31.3894 51.0251 32.3894 52.3251 33.0894C53.6251 33.7894 55.0251 34.1894 56.4251 34.0894C57.9251 34.0894 59.4251 33.6894 60.7251 32.9894L56.1251 26.8894H62.1251L63.8251 29.1894C64.2251 28.0894 64.4251 26.9894 64.4251 25.7894C64.4251 24.2894 64.1251 22.7894 63.4251 21.4894C62.7251 20.2894 61.8251 19.2894 60.5251 18.5894C58.0251 17.2894 54.9251 17.2894 52.3251 18.6894Z" fill="#F2F6FC"/>
<path d="M84.625 38.4894V36.5894C83.325 38.1894 81.425 39.0894 79.425 38.9894C77.925 38.9894 76.425 38.5894 75.125 37.7894C73.825 36.9894 72.825 35.7894 72.125 34.4894C70.625 31.4894 70.625 28.0894 72.125 25.0894C72.825 23.6894 73.825 22.5894 75.125 21.7894C76.425 20.9894 77.925 20.5894 79.425 20.5894C81.425 20.4894 83.425 21.3894 84.625 22.9894V21.0894H89.225V38.5894L84.625 38.4894ZM76.925 26.2894C76.125 27.1894 75.625 28.4894 75.725 29.6894C75.725 30.9894 76.125 32.1894 76.925 33.0894C78.625 34.8894 81.525 34.9894 83.325 33.1894L83.425 33.0894C84.225 32.0894 84.725 30.8894 84.625 29.5894C84.625 28.2894 84.225 27.0894 83.425 26.1894C81.725 24.4894 78.825 24.4894 76.925 26.2894Z" fill="#F2F6FC"/>
<path d="M103.125 20.9894L102.425 25.5894C102.025 25.3894 101.525 25.2894 101.025 25.1894C100.525 25.0894 100.025 25.0894 99.525 25.0894C98.525 25.0894 97.525 25.3894 96.825 26.0894C96.125 26.8894 95.725 27.9894 95.825 28.9894V38.4894H91.125V20.9894H95.625V22.8894C96.725 21.2894 98.625 20.3894 100.525 20.4894C101.525 20.4894 102.325 20.6894 103.125 20.9894Z" fill="#F2F6FC"/>
<path d="M112.225 25.1894V31.5894C112.125 32.3894 112.425 33.1894 112.925 33.8894C113.425 34.3894 114.125 34.6894 114.825 34.5894C116.025 34.4894 117.125 34.0894 118.125 33.3894L119.825 37.0894C119.025 37.6894 118.125 38.0894 117.125 38.4894C116.125 38.7894 115.125 38.9894 114.025 38.9894C112.225 39.0894 110.425 38.4894 109.125 37.1894C107.925 35.6894 107.325 33.8894 107.425 31.9894V25.1894H104.025V20.9894H107.425V15.7894H112.125V20.9894H118.425V25.1894H112.225Z" fill="#F2F6FC"/>
<path d="M142.225 38.4894L129.425 21.5894V38.4894H124.425V13.2894H129.125L141.925 30.1894V13.2894H147.025V38.5894H142.225V38.4894Z" fill="#F2F6FC"/>
<path d="M148.425 38.4894V13.2894H153.425V33.7894H166.825V38.4894H148.425Z" fill="#F2F6FC"/>
<path d="M172.725 38.4894H167.725V13.2894H178.025C181.025 13.2894 183.225 13.9894 184.825 15.3894C188.025 18.6894 188.025 23.8894 184.825 27.0894C183.225 28.4894 180.925 29.1894 178.025 29.1894H172.725V38.4894ZM172.725 24.6894H177.925C180.725 24.6894 182.125 23.5894 182.125 21.2894C182.125 18.9894 180.725 17.8894 177.925 17.8894H172.725V24.6894Z" fill="#F2F6FC"/>
</svg>
