<svg width="16" height="16" viewBox="0 0 16 16" fill="none" xmlns="http://www.w3.org/2000/svg">
<path d="M13.3126 2.03169C13.2689 2.05044 12.8532 2.44732 12.3845 2.91294L11.5376 3.75982L11.1345 3.60357C10.4845 3.34419 9.86573 3.18169 9.14073 3.07232C8.56573 2.98794 7.35636 2.99732 6.75323 3.09107C5.16261 3.33482 3.75636 3.96919 2.42511 5.04107C2.00323 5.37857 1.20324 6.18482 0.86261 6.60982C0.49386 7.07544 0.0376101 7.75982 0.0126101 7.89107C-0.0217649 8.07857 0.0251101 8.20357 0.28136 8.58794C1.03136 9.72232 2.10636 10.8036 3.18761 11.5161C3.36886 11.6348 3.52199 11.7348 3.52823 11.7411C3.53761 11.7473 3.20323 12.0942 2.79074 12.5098C2.14386 13.1567 2.03448 13.2817 2.01573 13.3848C1.98136 13.5723 2.02511 13.7192 2.15323 13.8473C2.28136 13.9754 2.42823 14.0192 2.61573 13.9848C2.72198 13.9661 3.32511 13.3723 8.33761 8.36607C12.4532 4.25044 13.947 2.73794 13.972 2.65982C14.0407 2.45044 13.9657 2.22544 13.7751 2.08482C13.6782 2.01294 13.4282 1.98482 13.3126 2.03169ZM9.06261 4.07857C9.60011 4.15982 10.197 4.31607 10.6689 4.50044L10.7626 4.53482L10.2501 5.04732L9.73761 5.55982L9.65323 5.50044C9.49073 5.38169 8.98136 5.15669 8.73448 5.08794C8.40323 5.00044 7.65948 4.99107 7.33136 5.07232C6.75948 5.21607 6.30636 5.47232 5.88761 5.88794C5.47198 6.30669 5.21573 6.76294 5.07198 7.33169C4.98761 7.66919 4.99698 8.37544 5.08761 8.71919C5.15948 8.97857 5.36574 9.45044 5.49698 9.64107L5.55948 9.73794L4.92511 10.3723L4.29073 11.0067L3.99386 10.8223C2.95636 10.1692 1.90324 9.17544 1.25011 8.23169L1.09074 8.00044L1.24699 7.77232C1.80011 6.97232 2.76261 6.00982 3.57824 5.43482C4.67824 4.65982 5.97823 4.16919 7.26886 4.03482C7.65636 3.99419 8.66886 4.01919 9.06261 4.07857ZM8.44386 6.05982C8.63761 6.10982 9.00011 6.25982 9.00011 6.29107C9.00011 6.29419 8.39073 6.90669 7.64386 7.65357L6.28761 9.00982L6.20323 8.84732C6.09073 8.61919 6.00011 8.25044 6.00011 8.00357C6.00323 6.72544 7.23136 5.75044 8.44386 6.05982Z" fill="#2C2C2C"/>
<path d="M12.9282 5.18158C12.7438 5.36595 12.5938 5.53158 12.5969 5.5472C12.5969 5.56595 12.7188 5.6722 12.8688 5.78783C13.5094 6.27845 14.3532 7.17845 14.8094 7.85033L14.9094 8.00033L14.7813 8.18783C14.2438 8.98158 13.3094 9.92845 12.4844 10.5191C11.0719 11.5316 9.42194 12.0472 7.78131 11.9878C7.26881 11.9722 7.10944 11.9535 6.58444 11.8566L6.30631 11.8035L5.90319 12.2066C5.61256 12.4972 5.51256 12.6128 5.54381 12.6316C5.63131 12.6816 6.37194 12.8472 6.79694 12.9128C7.38131 13.0035 8.57194 13.0097 9.14069 12.9285C11.1563 12.6316 12.8376 11.7628 14.3751 10.2222C14.9251 9.66908 15.2844 9.2347 15.6876 8.63158C16.0907 8.03158 16.0907 7.97845 15.7251 7.41908C15.3751 6.88783 14.8969 6.30345 14.3907 5.79408C13.9626 5.36283 13.3657 4.84408 13.3001 4.84408C13.2813 4.84408 13.1126 4.99408 12.9282 5.18158Z" fill="#2C2C2C"/>
<path d="M10.4252 7.68435L9.99394 8.1156L9.95332 8.36248C9.90332 8.64998 9.72519 9.03123 9.53457 9.25935C9.24082 9.61248 8.79082 9.8781 8.36269 9.9531L8.11582 9.99373L7.67519 10.4344C7.43457 10.675 7.24707 10.8812 7.25644 10.8906C7.29394 10.9281 7.77207 10.9969 8.00332 11C8.79394 11.0031 9.52207 10.6937 10.1096 10.1094C10.7127 9.50623 10.9783 8.87185 10.9814 8.03123C10.9846 7.6406 10.9314 7.24998 10.8814 7.24998C10.8689 7.24998 10.6658 7.44373 10.4252 7.68435Z" fill="#2C2C2C"/>
</svg>
