<svg width="235" height="74" viewBox="0 0 235 74" fill="none" xmlns="http://www.w3.org/2000/svg">
<g clip-path="url(#clip0_2436_2621)">
<path d="M82.8603 27.9955C84.8603 29.0955 86.4603 30.6955 87.5603 32.6955C88.6603 34.6955 89.2603 37.0955 89.2603 39.3955C89.3603 42.1955 88.3603 44.9955 86.6603 47.1955L90.2603 51.9955H84.3603L83.1603 50.3955C80.9603 51.6955 78.5603 52.3955 75.9603 52.3955C73.5603 52.3955 71.1603 51.8955 69.0603 50.6955C67.0603 49.5955 65.4603 47.9955 64.3603 45.9955C62.0603 41.7955 62.0603 36.7955 64.3603 32.5955C65.4603 30.5955 67.0603 28.9955 69.0603 27.8955C73.4603 25.6955 78.5603 25.6955 82.8603 27.9955ZM71.8603 32.1955C70.6603 32.8955 69.6603 33.8955 68.9603 35.0955C67.5603 37.7955 67.5603 40.9955 68.9603 43.6955C69.6603 44.8955 70.5603 45.8955 71.8603 46.5955C73.1603 47.2955 74.5603 47.6955 75.9603 47.5955C77.4603 47.5955 78.9603 47.1955 80.2603 46.4955L75.6603 40.3955H81.6603L83.3603 42.6955C83.7603 41.5955 83.9603 40.4955 83.9603 39.2955C83.9603 37.7955 83.6603 36.2955 82.9603 34.9955C82.2603 33.7955 81.3603 32.7955 80.0603 32.0955C77.5603 30.7955 74.4603 30.7955 71.8603 32.1955Z" fill="#F6F6F6"/>
<path d="M104.16 51.9954V50.0954C102.86 51.6954 100.96 52.5954 98.9602 52.4954C97.4602 52.4954 95.9602 52.0954 94.6602 51.2954C93.3602 50.4954 92.3602 49.2954 91.6602 47.9954C90.1602 44.9954 90.1602 41.5954 91.6602 38.5954C92.3602 37.1954 93.3602 36.0954 94.6602 35.2954C95.9602 34.4954 97.4602 34.0954 98.9602 34.0954C100.96 33.9954 102.96 34.8954 104.16 36.4954V34.5954H108.76V52.0954L104.16 51.9954ZM96.4602 39.7954C95.6602 40.6954 95.1602 41.9954 95.2602 43.1954C95.2602 44.4954 95.6602 45.6954 96.4602 46.5954C98.1602 48.3954 101.06 48.4954 102.86 46.6954L102.96 46.5954C103.76 45.5954 104.26 44.3954 104.16 43.0954C104.16 41.7954 103.76 40.5954 102.96 39.6954C101.26 37.9954 98.3602 37.9954 96.4602 39.7954Z" fill="#F6F6F6"/>
<path d="M122.66 34.4958L121.96 39.0958C121.56 38.8958 121.06 38.7958 120.56 38.6958C120.06 38.5958 119.56 38.5958 119.06 38.5958C118.06 38.5958 117.06 38.8958 116.36 39.5958C115.66 40.3958 115.26 41.4958 115.36 42.4958V51.9958H110.66V34.4958H115.16V36.3958C116.26 34.7958 118.16 33.8958 120.06 33.9958C121.06 33.9958 121.86 34.1958 122.66 34.4958Z" fill="#F6F6F6"/>
<path d="M131.76 38.6959V45.0959C131.66 45.8959 131.96 46.6959 132.46 47.3959C132.96 47.8959 133.66 48.1959 134.36 48.0959C135.56 47.9959 136.66 47.5959 137.66 46.8959L139.36 50.5959C138.56 51.1959 137.66 51.5959 136.66 51.9959C135.66 52.2959 134.66 52.4959 133.56 52.4959C131.76 52.5959 129.96 51.9959 128.66 50.6959C127.46 49.1959 126.86 47.3959 126.96 45.4959V38.6959H123.56V34.4959H126.96V29.2959H131.66V34.4959H137.96V38.6959H131.76Z" fill="#F6F6F6"/>
<path d="M161.76 51.9959L148.96 35.0959V51.9959H143.96V26.7959H148.66L161.46 43.6959V26.7959H166.56V52.0959H161.76V51.9959Z" fill="#F6F6F6"/>
<path d="M167.96 51.9959V26.7959H172.96V47.2959H186.36V51.9959H167.96Z" fill="#F6F6F6"/>
<path d="M192.26 51.9959H187.26V26.7959H197.56C200.56 26.7959 202.76 27.4959 204.36 28.8959C207.56 32.1959 207.56 37.3959 204.36 40.5959C202.76 41.9959 200.46 42.6959 197.56 42.6959H192.26V51.9959ZM192.26 38.1959H197.46C200.26 38.1959 201.66 37.0959 201.66 34.7959C201.66 32.4959 200.26 31.3959 197.46 31.3959H192.26V38.1959Z" fill="#F6F6F6"/>
<path d="M28.2002 24V50.1C28.2002 51.4 29.3002 52.5 30.7002 52.5H56.8002C58.2002 52.5 59.3002 51.4 59.3002 50V24C59.2002 22.6 58.1002 21.5 56.7002 21.5H30.7002C29.3002 21.5 28.2002 22.6 28.2002 24ZM56.0002 51.8H55.2002C54.6002 51.8 54.2002 51.3 54.2002 50.8V47.5V29C54.2002 27.6 53.1002 26.5 51.8002 26.5H35.6002C34.3002 26.5 33.2002 27.6 33.2002 29V45C33.2002 46.4 34.3002 47.5 35.6002 47.5C38.7002 47.5 43.6002 47.5 43.7002 47.5C44.7002 47.5 45.7002 47 46.5002 46.3C47.4002 45.4 47.8002 44.2 47.7002 43C47.7002 41.9 47.4002 40.9 46.9002 40C46.2002 38.9 45.3002 37.9 44.4002 37C43.6002 36.1 42.9002 35.4 42.4002 34.7C41.9002 34 41.4002 33.3 41.1002 32.5C40.7002 31.6 40.6002 30.6 40.6002 29.6V28.7C40.6002 28.4 40.9002 28.1 41.2002 28.1H44.6002C44.9002 28.1 45.2002 28.4 45.2002 28.7V29.2C45.2002 29.9 45.3002 30.5 45.6002 31.1C45.9002 31.7 46.2002 32.2 46.6002 32.6C47.0002 33 47.5002 33.6 48.2002 34.3C49.0002 35 49.7002 35.8 50.4002 36.6C51.0002 37.4 51.5002 38.2 51.9002 39.2C52.3002 40.4 52.5002 41.6 52.5002 42.9C52.5002 44.5 52.2002 46.1 51.4002 47.5C51.4002 47.6 51.3002 47.6 51.3002 47.7C50.5002 49 49.4002 50.1 48.0002 50.8C46.6002 51.5 45.0002 51.9 43.4002 51.9H31.4002C30.0002 51.9 28.9002 50.8 28.9002 49.4V24.7C28.9002 23.3 30.0002 22.2 31.4002 22.2H56.1002C57.5002 22.2 58.6002 23.3 58.6002 24.7V49.4C58.5002 50.7 57.4002 51.8 56.0002 51.8Z" fill="#F6F6F6"/>
</g>
<defs>
<clipPath id="clip0_2436_2621">
<rect width="178.6" height="31" fill="white" transform="translate(28.2002 21.5)"/>
</clipPath>
</defs>
</svg>
