<svg width="87" height="70" viewBox="0 0 87 70" fill="none" xmlns="http://www.w3.org/2000/svg">
<path d="M36.796 22.6384C36.7672 22.3425 36.6373 22.0538 36.4209 21.8446C36.3632 21.7868 36.2911 21.7291 36.2189 21.6786L30.7294 18.3446C30.3543 18.1209 30.1235 17.7023 30.1235 17.2693V2.43941C30.0946 2.14354 29.9648 1.85488 29.7484 1.6456C29.6907 1.58787 29.6185 1.53014 29.5464 1.47962L27.2453 0.0868371C27.0649 -0.0214103 26.8413 -0.0286268 26.661 0.0796206C26.4734 0.180652 26.3652 0.375497 26.3652 0.584775V19.9827C26.3652 20.4374 26.6033 20.8631 26.9928 21.0941L31.7105 23.959C32.0856 24.1899 32.3164 24.6013 32.3164 25.0343V29.292V29.3136V29.5157C32.3453 29.8116 32.4751 30.1002 32.6915 30.3095C32.7492 30.3672 32.8214 30.425 32.8935 30.4755L35.8871 32.2868L35.916 32.3013C35.9304 32.3085 35.9376 32.3157 35.952 32.3229C35.9592 32.3301 35.9665 32.3301 35.9737 32.3374C36.053 32.3734 36.1324 32.3879 36.2189 32.3879C36.3271 32.3879 36.4353 32.359 36.5291 32.2941C36.695 32.1858 36.796 32.0054 36.796 31.8033V22.8404V22.6384Z" fill="white"/>
<path d="M42.336 9.85062C42.3072 9.55474 42.1773 9.26609 41.9609 9.05681C41.9032 8.99907 41.8311 8.94134 41.7589 8.89083L32.8502 3.48567V3.47846H32.8358L32.8141 3.46402C32.7997 3.45681 32.7925 3.44959 32.7781 3.44237H32.7709C32.7636 3.44237 32.7636 3.43516 32.7564 3.43516C32.5761 3.34856 32.3669 3.36299 32.201 3.47124C32.0351 3.57949 31.9341 3.7599 31.9341 3.96196V12.6867L31.9485 12.6939V14.729C31.9774 15.0248 32.1072 15.3135 32.3236 15.5228C32.3813 15.5805 32.4535 15.6382 32.5256 15.6888L37.9862 19.0084C38.3613 19.2321 38.5922 19.6506 38.5922 20.0836V42.3104C38.621 42.6063 38.7509 42.8949 38.9673 43.1042C39.025 43.162 39.0971 43.2197 39.1693 43.2702L41.4415 44.6486L41.4704 44.663C41.4848 44.6702 41.492 44.6774 41.5065 44.6846C41.5137 44.6919 41.5209 44.6919 41.5281 44.6919C41.6074 44.7279 41.6868 44.7424 41.7734 44.7424C41.8816 44.7424 41.9898 44.7135 42.0835 44.6486C42.2494 44.5403 42.3504 44.3599 42.3504 44.1578V12.7228L42.336 12.7156V9.85062Z" fill="white"/>
<path d="M59.9011 0.0797773C59.7136 -0.0212536 59.4972 -0.0212536 59.3168 0.0869938L57.0157 1.47978C56.9436 1.53029 56.8714 1.58081 56.8137 1.64576C56.5973 1.86225 56.4675 2.14369 56.4386 2.43957V17.2623C56.4386 17.7025 56.2078 18.1138 55.8327 18.3375L50.3432 21.6715C50.2711 21.722 50.1989 21.7726 50.1412 21.8375C49.9248 22.054 49.795 22.3354 49.7661 22.6313V22.8334V31.7963C49.7661 31.9983 49.8671 32.1787 50.033 32.287C50.1268 32.3447 50.235 32.3808 50.3432 32.3808C50.4225 32.3808 50.5091 32.3664 50.5885 32.3303C50.5957 32.3303 50.6029 32.3231 50.6101 32.3159C50.6245 32.3086 50.6317 32.3014 50.6462 32.2942L53.5965 30.5262L53.6686 30.4829C53.7408 30.4324 53.8129 30.3818 53.8706 30.3169C54.087 30.1004 54.2169 29.819 54.2457 29.5231V29.321V25.0416C54.2457 24.6014 54.4766 24.1901 54.8517 23.9664L59.5693 21.1014C59.9588 20.8633 60.1969 20.4375 60.1969 19.9901V0.584932C60.1969 0.368437 60.0887 0.180808 59.9011 0.0797773Z" fill="white"/>
<path d="M54.0363 15.6816C54.1084 15.631 54.1805 15.5805 54.2382 15.5156C54.4547 15.2991 54.5845 15.0176 54.6133 14.7218V12.6939L54.6278 12.6867V3.96196C54.6278 3.7599 54.5268 3.57949 54.3609 3.47124C54.1878 3.36299 53.9858 3.34856 53.8054 3.43516C53.7982 3.43516 53.7982 3.44237 53.791 3.44237L53.7838 3.44959C53.7694 3.45681 53.7622 3.46402 53.7477 3.47124L53.7261 3.48567H53.7117V3.49289L44.8751 8.85475L44.8029 8.89805C44.7308 8.94856 44.6587 8.99908 44.601 9.06402C44.3845 9.28052 44.2547 9.56196 44.2258 9.85784V12.7156L44.2114 12.7228V44.1651C44.2114 44.3671 44.3124 44.5475 44.4783 44.6558C44.5721 44.7207 44.6803 44.7496 44.7885 44.7496C44.8679 44.7496 44.9544 44.7352 45.0338 44.6991C45.041 44.6991 45.0482 44.6919 45.0554 44.6846C45.0698 44.6774 45.077 44.6702 45.0915 44.663L47.3926 43.2702C47.4647 43.2197 47.5369 43.1692 47.5946 43.1042C47.811 42.8877 47.9408 42.6063 47.9697 42.3104V20.0836C47.9697 19.6434 48.2005 19.2321 48.5756 19.0084L53.9641 15.7393L54.0363 15.6816Z" fill="white"/>
<path d="M6.84548 56.8301V56.9816C6.83827 56.9816 6.83827 56.9816 6.83105 56.9744C6.83827 56.9239 6.84548 56.8734 6.84548 56.8301Z" fill="white"/>
<path d="M4.39288 52.5366C4.39288 53.0418 3.98171 53.4531 3.47676 53.4531H1.63731C1.13236 53.4531 0.721191 53.0418 0.721191 52.5366C0.721191 52.0315 1.13236 51.6201 1.63731 51.6201H3.47676C3.98171 51.6201 4.39288 52.0315 4.39288 52.5366Z" fill="white"/>
<path d="M6.84548 56.8301V56.9816C6.83827 56.9816 6.83827 56.9816 6.83105 56.9744C6.83827 56.9239 6.84548 56.8734 6.84548 56.8301Z" fill="white"/>
<path d="M10.5172 54.3768V65.4036C10.5172 66.9047 9.79585 68.2397 8.67775 69.0768C7.91311 69.6541 6.95371 69.9933 5.92217 69.9933C4.89064 69.9933 3.93124 69.6541 3.1666 69.0768C2.0485 68.2397 1.32715 66.9047 1.32715 65.4036V62.3438C1.32715 61.8387 1.73832 61.4273 2.24327 61.4273C2.56788 61.4273 2.84921 61.5933 3.01512 61.8459C3.10889 61.9902 3.15939 62.1634 3.15939 62.3438V65.4036C3.15939 66.9263 4.3929 68.1603 5.91496 68.1603C7.43702 68.1603 8.67053 66.9263 8.67053 65.4036V54.3768C8.67053 53.8717 8.25936 53.4603 7.75441 53.4603C7.24947 53.4603 6.83829 53.8717 6.83829 54.3768V56.8304C6.83829 56.8809 6.83108 56.9315 6.82387 56.9748C6.75173 57.415 6.37663 57.7469 5.91496 57.7469C5.41001 57.7469 4.99884 57.3356 4.99884 56.8304V54.3768C4.99884 53.1789 5.76348 52.1541 6.83829 51.7789C7.12684 51.6779 7.43702 51.6201 7.75441 51.6201C8.07902 51.6201 8.38921 51.6779 8.67053 51.7789C9.75257 52.1541 10.5172 53.1789 10.5172 54.3768Z" fill="white"/>
<path d="M31.6456 66.3271C32.1506 66.3271 32.5617 66.7385 32.5617 67.2436V69.0839C32.5617 69.589 32.1506 70.0003 31.6456 70.0003C31.1407 70.0003 30.7295 69.589 30.7295 69.0839V67.2436C30.7295 66.7385 31.1407 66.3271 31.6456 66.3271Z" fill="white"/>
<path d="M32.5619 56.2166V61.1166C32.5619 61.6218 32.1507 62.0331 31.6457 62.0331C31.1408 62.0331 30.7296 61.6218 30.7296 61.1166V56.2166C30.7296 54.694 29.4961 53.4599 27.974 53.4599C26.452 53.4599 25.2185 54.694 25.2185 56.2166V69.0837C25.2185 69.5888 24.8073 70.0001 24.3023 70.0001C23.7974 70.0001 23.3862 69.5888 23.3862 69.0837V56.2166C23.3862 54.7156 24.1076 53.3806 25.2257 52.5434C25.9903 51.9661 26.9497 51.627 27.9813 51.627C29.0128 51.627 29.9578 51.9589 30.7296 52.5362C31.8405 53.3733 32.5619 54.7084 32.5619 56.2166Z" fill="white"/>
<path d="M84.9249 66.3271C85.4299 66.3271 85.841 66.7385 85.841 67.2436V69.0839C85.841 69.589 85.4299 70.0003 84.9249 70.0003C84.42 70.0003 84.0088 69.589 84.0088 69.0839V67.2436C84.0088 66.7385 84.42 66.3271 84.9249 66.3271Z" fill="white"/>
<path d="M85.8411 56.2166V61.1166C85.8411 61.6218 85.43 62.0331 84.925 62.0331C84.4201 62.0331 84.0089 61.6218 84.0089 61.1166V56.2166C84.0089 54.694 82.7754 53.4599 81.2533 53.4599C79.7313 53.4599 78.4978 54.694 78.4978 56.2166V69.0837C78.4978 69.5888 78.0866 70.0001 77.5816 70.0001C77.0767 70.0001 76.6655 69.5888 76.6655 69.0837V56.2166C76.6655 54.7156 77.3869 53.3806 78.505 52.5434C79.2696 51.9661 80.229 51.627 81.2605 51.627C82.2921 51.627 83.2515 51.9661 84.0161 52.5434C85.1198 53.3733 85.8411 54.7084 85.8411 56.2166Z" fill="white"/>
<path d="M52.7743 55.2927V61.1164C52.7743 61.6216 52.3631 62.0329 51.8581 62.0329C51.3532 62.0329 50.942 61.6216 50.942 61.1164V55.2927C50.942 54.2752 50.1197 53.4525 49.1026 53.4525C48.0855 53.4525 47.2631 54.2752 47.2631 55.2927V61.1164C47.2631 61.6216 46.8519 62.0329 46.347 62.0329C45.842 62.0329 45.4309 61.6216 45.4309 61.1164V55.2927C45.4309 54.2752 44.6085 53.4525 43.5914 53.4525C42.5959 53.4525 41.7808 54.2535 41.752 55.2422C41.752 55.235 41.752 55.2278 41.752 55.2206V55.2711C41.752 55.2783 41.752 55.2855 41.752 55.2927C41.752 55.2999 41.752 55.3071 41.752 55.3144V61.1092C41.752 61.6144 41.3408 62.0257 40.8358 62.0257C40.3309 62.0257 39.9197 61.6144 39.9197 61.1092V55.2855C39.9197 54.268 39.0974 53.4453 38.0803 53.4453C37.0632 53.4453 36.2408 54.268 36.2408 55.2855V60.1855C36.2408 64.5876 39.8043 68.1525 44.2046 68.1525C44.219 68.1525 44.2406 68.1525 44.2551 68.1525H46.3398C46.8447 68.1525 47.2559 68.5638 47.2559 69.069C47.2559 69.5742 46.8447 69.9855 46.3398 69.9855H44.2046C40.9224 69.9855 38.0226 68.369 36.2408 65.8937C35.0867 64.2845 34.4086 62.3144 34.4014 60.1855V55.2855C34.4014 53.9288 35.1371 52.7381 36.2408 52.103C36.7818 51.7927 37.4094 51.6123 38.0803 51.6123C38.7511 51.6123 39.3787 51.7927 39.9197 52.103C40.266 52.3051 40.5762 52.5577 40.8358 52.8535C41.0955 52.5577 41.4057 52.3051 41.752 52.103C42.293 51.7927 42.9206 51.6123 43.5914 51.6123C44.2623 51.6123 44.8899 51.7927 45.4309 52.103C45.7771 52.3051 46.0873 52.5577 46.347 52.8535C46.6067 52.5577 46.9169 52.2979 47.2631 52.103C47.8041 51.7927 48.4317 51.6123 49.1026 51.6123C49.7734 51.6123 50.401 51.7927 50.942 52.103C52.0313 52.7453 52.7743 53.936 52.7743 55.2927Z" fill="white"/>
<path d="M21.28 61.4201C21.4459 61.8964 21.5397 62.416 21.5397 62.95V65.4036C21.5397 66.9047 20.8183 68.2397 19.7002 69.0768C18.9356 69.6541 17.9762 69.9933 16.9446 69.9933C15.9131 69.9933 14.9537 69.6541 14.1891 69.0768C13.071 68.2397 12.3496 66.9047 12.3496 65.4036V54.3768C12.3496 54.0521 12.4073 53.7418 12.5083 53.4603C12.7824 52.6737 13.4028 52.0531 14.1891 51.7789C14.4776 51.6779 14.7878 51.6201 15.1052 51.6201H20.6163C21.1213 51.6201 21.5324 52.0315 21.5324 52.5366C21.5324 53.0418 21.1213 53.4531 20.6163 53.4531H15.1052C14.6002 53.4531 14.1891 53.8644 14.1891 54.3696V65.3964C14.1891 65.9665 14.3622 66.4861 14.6507 66.9263C15.1485 67.6624 15.9852 68.1531 16.9446 68.1531C17.8968 68.1531 18.7408 67.6696 19.2385 66.9263C19.5343 66.4861 19.7002 65.9593 19.7002 65.3964V62.9428C19.7002 62.3727 19.5271 61.8459 19.2385 61.4129C18.7408 60.6768 17.904 60.1861 16.9446 60.1861C16.4397 60.1861 16.0285 59.7748 16.0285 59.2696C16.0285 58.7644 16.4397 58.3531 16.9446 58.3531C18.95 58.3603 20.6524 59.6376 21.28 61.4201Z" fill="white"/>
<path d="M57.1384 52.6369C57.1456 52.673 57.1528 52.7019 57.16 52.7308C57.1672 52.7524 57.1744 52.7813 57.1889 52.8029C57.2322 52.9112 57.2971 53.0194 57.3909 53.106L57.3981 53.1132C57.5423 53.2576 57.8309 53.5462 58.0834 53.7988C58.444 54.1596 59.0211 54.1596 59.3818 53.7988C59.7425 53.438 59.7425 52.8607 59.3818 52.4998L58.6893 51.8071C58.6749 51.7926 58.6677 51.7854 58.6532 51.771C58.6316 51.7493 58.6099 51.7277 58.5811 51.7132C58.5667 51.706 58.5594 51.6988 58.545 51.6844C58.5306 51.6772 58.5162 51.6699 58.509 51.6627C58.4945 51.6555 58.4801 51.6483 58.4729 51.6411C58.4512 51.6266 58.4224 51.6194 58.3935 51.605C58.3791 51.5978 58.3719 51.5978 58.3575 51.5906C58.3503 51.5906 58.3503 51.5906 58.343 51.5833C58.3358 51.5833 58.3214 51.5761 58.3142 51.5761C58.2853 51.5689 58.2565 51.5617 58.2276 51.5545C58.2132 51.5545 58.206 51.5473 58.1916 51.5473H58.1843C58.1771 51.5473 58.1627 51.5473 58.1555 51.54C58.1555 51.54 58.1555 51.54 58.1483 51.54C58.1483 51.54 58.1483 51.54 58.1411 51.54H58.1339H58.1266H58.1194H58.1122C58.105 51.54 58.0978 51.54 58.0834 51.54C58.0761 51.54 58.0617 51.54 58.0545 51.54C58.0473 51.54 58.0473 51.54 58.0401 51.54C58.0329 51.54 58.0184 51.54 58.0112 51.54C57.9896 51.54 57.9607 51.54 57.9391 51.5473C57.9319 51.5473 57.9174 51.5473 57.9102 51.5545C57.903 51.5545 57.8958 51.5545 57.8886 51.5617C57.8814 51.5617 57.8742 51.5617 57.8597 51.5689C57.8525 51.5689 57.8453 51.5689 57.8453 51.5689H57.8381C57.8237 51.5689 57.8165 51.5761 57.802 51.5761C57.802 51.5761 57.802 51.5761 57.7948 51.5761C57.7804 51.5833 57.766 51.5833 57.7515 51.5906C57.7227 51.5978 57.6938 51.6122 57.665 51.6266C57.6073 51.6483 57.5568 51.6844 57.5063 51.7205C57.4702 51.7493 57.4341 51.7782 57.3981 51.8143C57.1961 52.0163 57.1095 52.2906 57.1312 52.5503C57.1312 52.5792 57.1312 52.6081 57.1384 52.6369Z" fill="white"/>
<path d="M63.342 56.8302C63.1256 56.3827 62.8371 55.9786 62.4981 55.625C62.4692 55.5961 62.4331 55.5601 62.4043 55.5312C62.2456 55.3724 62.1013 55.2281 62.0003 55.1343C62.0003 55.1343 62.0003 55.1343 61.9931 55.1271C61.6324 54.7662 61.0554 54.7662 60.6947 55.1271C60.334 55.4879 60.334 56.0652 60.6947 56.426L60.7019 56.4332C60.8029 56.5343 60.9471 56.6786 61.1058 56.8374C61.1347 56.8662 61.1708 56.9023 61.1996 56.9312C61.6685 57.4291 61.957 58.093 61.957 58.8363V65.3601C61.957 66.8827 60.7235 68.1168 59.2015 68.1168C57.6794 68.1168 56.4459 66.8827 56.4459 65.3601V60.4601C56.4459 59.9549 56.0347 59.5436 55.5298 59.5436C55.2052 59.5436 54.9166 59.7168 54.7507 59.9765C54.6642 60.1209 54.6064 60.2869 54.6064 60.4673V65.3673C54.6064 66.8683 55.3278 68.2034 56.4459 69.0405C57.2105 69.6178 58.1699 69.957 59.2015 69.957C60.233 69.957 61.1924 69.6178 61.957 69.0405C63.0751 68.2034 63.7965 66.8683 63.7965 65.3673V58.8436C63.7965 58.1147 63.6306 57.4363 63.342 56.8302Z" fill="white"/>
<path d="M71.1469 56.2166V58.4465C70.8511 58.3888 70.5409 58.3527 70.2308 58.3527C70.1947 58.3527 70.1658 58.3527 70.1298 58.3527H70.1226C69.8484 58.3599 69.5743 58.3888 69.3074 58.4465V56.2166C69.3074 55.7115 68.8963 55.3001 68.3913 55.3001C67.5762 55.3001 66.8404 54.9465 66.3355 54.3837C65.8954 53.8929 65.6357 53.2507 65.6357 52.5434C65.6357 52.0383 66.0469 51.627 66.5519 51.627C67.0568 51.627 67.468 52.0383 67.468 52.5434C67.468 53.0486 67.8792 53.4599 68.3841 53.4599C68.7087 53.4599 69.0189 53.5177 69.3002 53.6187C69.7402 53.7775 70.1298 54.0373 70.4327 54.3837C70.88 54.8672 71.1469 55.5094 71.1469 56.2166Z" fill="white"/>
<path d="M72.9863 59.2694C72.4525 58.8653 71.825 58.5838 71.1469 58.4395C70.8511 58.3818 70.5409 58.3457 70.2308 58.3457C70.1947 58.3457 70.1658 58.3457 70.1298 58.3457H70.1226C69.8484 58.3529 69.5743 58.3818 69.3074 58.4395C68.8386 58.5333 68.3913 58.6993 67.9874 58.9302C67.9874 58.9302 67.9801 58.9302 67.9801 58.9375C67.807 59.0385 67.6339 59.1467 67.4752 59.2694C66.3571 60.1065 65.6357 61.4416 65.6357 62.9426V65.3962C65.6357 66.8973 66.3571 68.2323 67.4752 69.0694C68.2398 69.6467 69.1992 69.9859 70.2308 69.9859C71.2623 69.9859 72.2217 69.6467 72.9863 69.0694C74.1044 68.2323 74.8258 66.8973 74.8258 65.3962V62.9426C74.8186 61.4416 74.0972 60.1065 72.9863 59.2694ZM72.5175 66.9261C72.5175 66.9333 72.5175 66.9333 72.5175 66.9261C72.0197 67.6694 71.183 68.1529 70.2236 68.1529C69.2714 68.1529 68.4274 67.6694 67.9296 66.9261C67.6339 66.4859 67.468 65.9591 67.468 65.3962V62.9426C67.468 62.3725 67.6411 61.8457 67.9296 61.4127C68.4202 60.6766 69.2642 60.1859 70.2236 60.1859C71.1757 60.1859 72.0197 60.6694 72.5175 61.4127C72.8132 61.8529 72.9791 62.3797 72.9791 62.9426V65.3962C72.9863 65.9663 72.8132 66.4931 72.5175 66.9261Z" fill="white"/>
</svg>
