<svg width="28" height="28" viewBox="0 0 28 28" fill="none" xmlns="http://www.w3.org/2000/svg">
<path d="M14 1C6.8201 1 1 6.8201 1 14C1 21.1799 6.8201 27 14 27C21.1799 27 27 21.1799 27 14C27 6.8201 21.1799 1 14 1Z" stroke="white" stroke-width="2" stroke-linecap="round" stroke-linejoin="round"/>
<path d="M3.95264 22.25C3.95264 22.25 6.85034 18.5502 14.0003 18.5502C21.1503 18.5502 24.0493 22.25 24.0493 22.25M14.0003 14.0002C15.0347 14.0002 16.0267 13.5893 16.7581 12.8579C17.4894 12.1265 17.9003 11.1345 17.9003 10.1002C17.9003 9.06585 17.4894 8.07387 16.7581 7.34248C16.0267 6.61109 15.0347 6.2002 14.0003 6.2002C12.966 6.2002 11.974 6.61109 11.2426 7.34248C10.5112 8.07387 10.1003 9.06585 10.1003 10.1002C10.1003 11.1345 10.5112 12.1265 11.2426 12.8579C11.974 13.5893 12.966 14.0002 14.0003 14.0002Z" stroke="white" stroke-width="2" stroke-linecap="round" stroke-linejoin="round"/>
</svg>
